<?xml version="1.0" encoding="UTF-8"?>
<svg id="_レイヤー_1" data-name="レイヤー 1" xmlns="http://www.w3.org/2000/svg" viewBox="0 0 1953.39 1025.53">
  <defs>
    <style>
      .cls-1 {
        fill: #fff;
      }

      .cls-2 {
        isolation: isolate;
      }

      .cls-3 {
        fill: #258faf;
      }
    </style>
  </defs>
  <rect class="cls-3" width="1953.39" height="1025.53"/>
  <g class="cls-2">
    <path class="cls-1" d="M687.15,437.82l37.69,117.33,37.69-117.33h28.14l37.69,117.33,37.69-117.33h42.47l-60.26,177.05h-34.51l-37.16-107.5-37.16,107.5h-34.51l-60.26-177.05h42.47Z"/>
    <path class="cls-1" d="M1015.56,598.99c-10.62,11.15-28.67,20.07-51.76,20.07s-41.14-8.92-51.76-20.07c-11.94-12.54-17.78-30.38-17.78-46.27s5.84-33.73,17.78-46.27c10.62-11.15,28.67-20.07,51.76-20.07s41.14,8.92,51.76,20.07c11.94,12.54,17.78,30.38,17.78,46.27s-5.84,33.73-17.78,46.27ZM942.3,529.31c-5.57,5.85-8.76,13.38-8.76,23.41,0,11.43,4.25,18.67,8.76,23.41,4.78,5.02,11.68,8.92,21.77,8.92,8.49,0,15.66-3.07,21.24-8.92,5.57-5.85,8.76-13.38,8.76-23.41s-3.19-17.56-8.76-23.41c-5.57-5.85-12.74-8.92-21.5-8.92s-15.93,3.06-21.5,8.92Z"/>
    <path class="cls-1" d="M1047.12,496.49h38.22v18.58c3.45-6.63,8.76-12.74,14.86-16.46,6.37-3.98,13.01-5.04,20.44-5.04,4.78,0,8.23.53,12.48,1.86l-2.12,35.84c-5.04-2.66-10.62-4.25-17.25-4.25-8.23,0-14.33,2.92-19.11,7.96-8.49,9.03-9.29,21.77-9.29,31.85v48.05h-38.22v-118.39Z"/>
    <path class="cls-1" d="M1271.87,614.88h-38.22v-14.33c-5.84,8.5-16.46,18.32-37.43,18.32-17.52,0-30.26-5.57-40.61-16.19-12.21-12.21-18.58-29.2-18.58-47.51,0-19.64,7.17-35.84,18.58-46.72,10.35-9.82,24.95-15.93,41.14-15.93,13.01,0,27.34,4.25,36.9,17.25v-88.39h38.22v193.51ZM1185.6,533.38c-5.57,5.31-9.29,13.01-9.29,22.56,0,8.76,3.72,16.46,9.29,21.76,5.84,5.58,13.27,8.23,19.91,8.23,7.17,0,15.66-2.92,21.77-8.76,4.51-4.25,8.76-11.41,8.76-21.23s-3.98-16.99-8.49-21.77c-6.11-6.37-13.27-8.76-21.5-8.76-7.7,0-14.33,2.12-20.44,7.96Z"/>
    <path class="cls-1" d="M1340.49,421.37v193.51h-38.22v-193.51h38.22Z"/>
    <path class="cls-1" d="M1474.5,600.02c-9.93,10.42-26.8,18.76-48.39,18.76s-38.46-8.34-48.39-18.76c-11.17-11.73-16.62-28.4-16.62-43.25s5.46-31.52,16.62-43.25c9.93-10.42,26.8-18.76,48.39-18.76s38.46,8.34,48.39,18.76c11.17,11.72,16.63,28.4,16.63,43.25s-5.46,31.52-16.63,43.25ZM1406.02,534.89c-5.21,5.47-8.19,12.51-8.19,21.88,0,10.68,3.97,17.46,8.19,21.89,4.47,4.69,10.92,8.34,20.35,8.34,7.94,0,14.64-2.87,19.85-8.34,5.21-5.47,8.19-12.51,8.19-21.89s-2.98-16.41-8.19-21.88c-5.21-5.47-11.91-8.34-20.1-8.34s-14.89,2.87-20.1,8.34Z"/>
    <path class="cls-1" d="M1580.21,600.02c-9.93,10.42-26.8,18.76-48.39,18.76s-38.46-8.34-48.39-18.76c-11.17-11.73-16.62-28.4-16.62-43.25s5.46-31.52,16.62-43.25c9.93-10.42,26.8-18.76,48.39-18.76s38.46,8.34,48.39,18.76c11.17,11.72,16.63,28.4,16.63,43.25s-5.46,31.52-16.63,43.25ZM1511.72,534.89c-5.21,5.47-8.19,12.51-8.19,21.88,0,10.68,3.97,17.46,8.19,21.89,4.47,4.69,10.92,8.34,20.35,8.34,7.94,0,14.64-2.87,19.85-8.34,5.21-5.47,8.19-12.51,8.19-21.89s-2.98-16.41-8.19-21.88c-5.21-5.47-11.91-8.34-20.1-8.34s-14.89,2.87-20.1,8.34Z"/>
    <path class="cls-1" d="M1653.35,675.66h-38.22v-179.17h38.22v14.07c12.48-16.19,27.87-18.05,36.9-18.05,21.24,0,34.51,9.29,41.94,16.72,10.62,10.62,17.78,26.81,17.78,46.19,0,20.44-7.17,35.84-18.85,47.51-11.68,11.68-24.42,15.93-40.08,15.93-23.63,0-33.71-11.94-37.69-17.52v74.32ZM1659.72,534.18c-6.11,6.1-9.03,14.6-9.03,21.77s2.92,15.13,8.49,20.97c5.58,5.57,13.54,9.02,21.77,9.02,7.17,0,14.87-2.92,20.44-8.23,6.11-5.84,9.29-14.86,9.29-22.56,0-8.76-3.72-16.46-9.02-21.5-5.58-5.31-13.01-8.23-20.71-8.23-10.62,0-17.52,5.04-21.23,8.76Z"/>
  </g>
  <g>
    <path class="cls-1" d="M377.43,374.69c.24,3.31,3.15,5.93,6.72,5.93s6.74-2.85,6.74-6.38c0-.28-.03-.56-.06-.84h0c-.09-1.25.18-4.99,2.32-7.3,1.66-1.79,4.48-2.7,8.38-2.7s6.69.94,8.47,2.79c2.81,2.93,2.78,7.63,2.77,8.06-.01.16-.01.22,0,.39,0,2.63-.52,5.73-6.84,9.22-10.47,5.78-10.65,15.86-10.75,21.29-.02.84.13,1.65.4,2.4l-10.93,5.89c-1.73.7-2.95,2.4-2.95,4.37v18c0,1.49,0,3,0,4.51v22.64c0,2.6,2.13,4.72,4.72,4.72h31.34c2.6,0,4.72-2.13,4.72-4.72v-45.14c0-2.18-1.49-4.02-3.51-4.56l-9.49-5.12c-.39-.33-.73-.68-1.02-1.04.15-.54.25-1.11.26-1.7.1-5.46.47-7.86,3.75-9.67,9.27-5.12,13.8-11.96,13.84-20.93.07-1.88.07-10.97-6.38-17.83-3.05-3.24-8.72-7.11-18.39-7.11s-15.48,3.92-18.46,7.2c-6.49,7.16-5.77,16.57-5.66,17.62h.02ZM403.3,421.05c-2.13.73-4.46-.4-5.19-2.54-.73-2.13.4-4.46,2.54-5.19,2.13-.73,4.46.4,5.19,2.54.73,2.13-.4,4.46-2.54,5.19Z"/>
    <path class="cls-1" d="M573.72,469.48c-16.88-16.74-39.46-26.25-63.58-26.79-69.87-1.57-117.11,80.79-119.09,84.29-.41.72-41.07,71.74-95.59,71.73-.46,0-.94,0-1.4-.02-36.96-.83-65.91-29.66-65.91-65.64s28.95-64.81,65.91-65.64c36.82-.82,67.63,31.28,84.09,52.8l14.52-21.62c-20.43-24.88-55.34-56.89-99.16-55.92-24.12.54-46.7,10.05-63.58,26.79-17.1,16.95-26.51,39.53-26.51,63.58s9.41,46.63,26.51,63.58c16.88,16.74,39.46,26.25,63.58,26.79.66.01,1.31.02,1.97.02,68.79,0,115.16-80.84,117.12-84.3.41-.72,41.28-71.74,95.6-71.74.46,0,.93,0,1.39.02,36.96.83,65.91,29.66,65.91,65.64s-28.95,64.81-65.91,65.64c-37.18.82-68.22-31.91-84.56-53.42l-14.53,21.64c20.06,24.59,54.44,56.53,97.69,56.53.65,0,1.31,0,1.97-.02,24.12-.54,46.7-10.05,63.58-26.79,17.1-16.95,26.51-39.53,26.51-63.58s-9.41-46.63-26.51-63.58Z"/>
  </g>
</svg>