<?xml version="1.0" encoding="UTF-8"?>
<svg id="_レイヤー_1" data-name="レイヤー 1" xmlns="http://www.w3.org/2000/svg" viewBox="0 0 1024 1024">
  <defs>
    <style>
      .cls-1 {
        fill: #fff;
      }

      .cls-2 {
        isolation: isolate;
      }

      .cls-3 {
        fill: #258faf;
      }
    </style>
  </defs>
  <rect class="cls-3" y="-.39" width="1024.39" height="1024.39"/>
  <g class="cls-2">
    <path class="cls-1" d="M182.92,703.86l24.31,75.68,24.31-75.68h18.15l24.31,75.68,24.31-75.68h27.39l-38.87,114.2h-22.26l-23.97-69.34-23.97,69.34h-22.26l-38.87-114.2h27.39Z"/>
    <path class="cls-1" d="M394.76,807.82c-6.85,7.19-18.49,12.94-33.39,12.94s-26.54-5.75-33.39-12.94c-7.7-8.09-11.47-19.6-11.47-29.84s3.77-21.75,11.47-29.84c6.85-7.19,18.49-12.94,33.39-12.94s26.54,5.75,33.39,12.94c7.7,8.09,11.47,19.6,11.47,29.84s-3.77,21.75-11.47,29.84ZM347.5,762.87c-3.6,3.78-5.65,8.63-5.65,15.1,0,7.37,2.74,12.05,5.65,15.1,3.08,3.24,7.53,5.75,14.04,5.75,5.48,0,10.1-1.98,13.7-5.75,3.6-3.78,5.65-8.63,5.65-15.1s-2.05-11.33-5.65-15.1-8.22-5.75-13.87-5.75-10.27,1.98-13.87,5.75Z"/>
    <path class="cls-1" d="M415.11,741.7h24.66v11.99c2.23-4.28,5.65-8.22,9.59-10.62,4.11-2.57,8.39-3.25,13.18-3.25,3.08,0,5.31.34,8.05,1.2l-1.37,23.11c-3.25-1.71-6.85-2.74-11.13-2.74-5.31,0-9.25,1.88-12.33,5.14-5.48,5.82-5.99,14.04-5.99,20.55v30.99h-24.66v-76.36Z"/>
    <path class="cls-1" d="M560.08,818.07h-24.65v-9.25c-3.77,5.48-10.62,11.81-24.14,11.81-11.3,0-19.52-3.6-26.2-10.44-7.88-7.88-11.99-18.83-11.99-30.65,0-12.67,4.62-23.11,11.99-30.13,6.68-6.34,16.09-10.27,26.54-10.27,8.39,0,17.64,2.74,23.8,11.13v-57.02h24.65v124.82ZM504.44,765.5c-3.6,3.42-5.99,8.39-5.99,14.55,0,5.65,2.4,10.62,5.99,14.04,3.77,3.6,8.56,5.31,12.84,5.31,4.62,0,10.1-1.88,14.04-5.65,2.91-2.74,5.65-7.36,5.65-13.7s-2.57-10.96-5.48-14.04c-3.94-4.11-8.56-5.65-13.87-5.65-4.97,0-9.25,1.37-13.18,5.14Z"/>
    <path class="cls-1" d="M604.34,693.25v124.82h-24.66v-124.82h24.66Z"/>
    <path class="cls-1" d="M690.79,808.49c-6.4,6.72-17.29,12.1-31.21,12.1s-24.81-5.38-31.21-12.1c-7.2-7.56-10.72-18.32-10.72-27.9s3.52-20.33,10.72-27.9c6.4-6.72,17.29-12.1,31.21-12.1s24.81,5.38,31.21,12.1c7.2,7.56,10.72,18.32,10.72,27.9s-3.52,20.33-10.72,27.9ZM646.61,766.48c-3.36,3.53-5.28,8.07-5.28,14.12,0,6.89,2.56,11.26,5.28,14.12,2.88,3.02,7.04,5.38,13.13,5.38,5.12,0,9.44-1.85,12.8-5.38,3.36-3.53,5.28-8.07,5.28-14.12s-1.92-10.59-5.28-14.12c-3.36-3.53-7.68-5.38-12.96-5.38s-9.6,1.85-12.96,5.38Z"/>
    <path class="cls-1" d="M758.97,808.49c-6.4,6.72-17.29,12.1-31.21,12.1s-24.81-5.38-31.21-12.1c-7.2-7.56-10.72-18.32-10.72-27.9s3.52-20.33,10.72-27.9c6.4-6.72,17.29-12.1,31.21-12.1s24.81,5.38,31.21,12.1c7.2,7.56,10.72,18.32,10.72,27.9s-3.52,20.33-10.72,27.9ZM714.8,766.48c-3.36,3.53-5.28,8.07-5.28,14.12,0,6.89,2.56,11.26,5.28,14.12,2.88,3.02,7.04,5.38,13.13,5.38,5.12,0,9.44-1.85,12.8-5.38,3.36-3.53,5.28-8.07,5.28-14.12s-1.92-10.59-5.28-14.12c-3.36-3.53-7.68-5.38-12.96-5.38s-9.6,1.85-12.96,5.38Z"/>
    <path class="cls-1" d="M806.15,857.28h-24.65v-115.57h24.65v9.07c8.05-10.44,17.98-11.64,23.8-11.64,13.7,0,22.26,5.99,27.05,10.79,6.85,6.85,11.47,17.29,11.47,29.79,0,13.18-4.62,23.11-12.16,30.65-7.53,7.53-15.75,10.27-25.85,10.27-15.24,0-21.74-7.7-24.31-11.3v47.94ZM810.26,766.02c-3.94,3.94-5.82,9.42-5.82,14.04s1.88,9.76,5.48,13.53c3.6,3.6,8.73,5.82,14.04,5.82,4.62,0,9.59-1.88,13.18-5.31,3.94-3.77,5.99-9.59,5.99-14.55,0-5.65-2.4-10.62-5.82-13.87-3.6-3.42-8.39-5.31-13.36-5.31-6.85,0-11.3,3.25-13.7,5.65Z"/>
  </g>
  <g>
    <path class="cls-1" d="M468.17,211.32c.44,5.95,5.67,10.65,12.07,10.65s12.11-5.13,12.11-11.46c0-.51-.05-1.01-.12-1.5h.01c-.17-2.25.33-8.97,4.17-13.11,2.99-3.22,8.05-4.85,15.06-4.85s12.03,1.69,15.23,5.02c5.06,5.26,4.99,13.72,4.97,14.49-.02.29-.02.39-.02.7,0,4.73-.93,10.3-12.3,16.57-18.81,10.38-19.14,28.5-19.31,38.24-.03,1.51.24,2.96.72,4.31l-19.63,10.58c-3.1,1.26-5.31,4.31-5.31,7.86v32.34c-.02,2.68-.02,5.39,0,8.1v40.67c0,4.67,3.82,8.49,8.48,8.49h56.31c4.67,0,8.49-3.82,8.49-8.49v-81.11c0-3.91-2.69-7.22-6.3-8.19l-17.05-9.19c-.69-.6-1.3-1.22-1.83-1.87.27-.98.44-2,.46-3.06.18-9.81.84-14.13,6.74-17.38,16.66-9.19,24.8-21.49,24.87-37.6.13-3.38.13-19.7-11.47-32.03-5.48-5.83-15.67-12.77-33.04-12.77s-27.82,7.04-33.17,12.94c-11.65,12.86-10.36,29.77-10.18,31.65h.04ZM514.65,294.61c-3.83,1.32-8.01-.73-9.32-4.56-1.32-3.83.73-8.01,4.56-9.32,3.83-1.32,8.01.73,9.32,4.56,1.32,3.83-.73,8.01-4.56,9.32Z"/>
    <path class="cls-1" d="M820.84,381.62c-30.33-30.07-70.9-47.16-114.24-48.13-125.53-2.82-210.41,145.15-213.96,151.45-.73,1.3-73.78,128.89-171.74,128.87-.83,0-1.68,0-2.52-.03-66.41-1.49-118.42-53.29-118.42-117.93s52.02-116.45,118.42-117.93c66.15-1.47,121.5,56.2,151.09,94.87l26.08-38.84c-36.71-44.7-99.43-102.21-178.16-100.46-43.34.97-83.91,18.06-114.24,48.13-30.72,30.45-47.63,71.02-47.63,114.23s16.92,83.78,47.63,114.23c30.33,30.07,70.9,47.16,114.24,48.13,1.19.03,2.35.04,3.53.04,123.58-.02,206.91-145.25,210.42-151.47.74-1.3,74.16-128.89,171.77-128.89.83,0,1.67,0,2.5.03,66.41,1.49,118.42,53.29,118.42,117.93s-52.02,116.45-118.42,117.93c-66.81,1.47-122.58-57.32-151.94-95.98l-26.11,38.88c36.04,44.18,97.81,101.57,175.51,101.57,1.17,0,2.35-.01,3.53-.04,43.34-.97,83.91-18.06,114.24-48.13,30.72-30.45,47.63-71.02,47.63-114.23s-16.92-83.78-47.63-114.23Z"/>
  </g>
</svg>